<svg xmlns="http://www.w3.org/2000/svg" version="1.0" preserveAspectRatio="xMidYMid meet" viewBox="266.16 84 908.84 223.36">

<g transform="translate(0.000000,392.000000) scale(0.100000,-0.100000)" fill="#0077b6" stroke="none">
<path d="M2810 2990 c-162 -238 -191 -402 -89 -511 l29 -31 0 -609 0 -609 140 0 140 0 0 605 0 605 40 52 c70 93 68 188 -9 343 -62 125 -146 245 -171 245 -11 0 -40 -32 -80 -90z"/>
<path d="M9212 2629 c-63 -11 -112 -34 -112 -54 0 -8 21 -38 46 -66 73 -82 126 -210 92 -221 -7 -3 -13 -42 -16 -109 -4 -92 -2 -111 17 -152 27 -59 70 -108 130 -149 55 -38 151 -88 169 -88 7 0 21 -4 32 -10 49 -24 58 -28 90 -35 19 -4 41 -11 50 -16 8 -4 31 -15 51 -24 20 -9 50 -30 68 -47 25 -24 31 -39 31 -72 0 -45 -31 -106 -54 -106 -8 0 -16 -6 -18 -12 -7 -19 -186 -17 -224 2 -57 28 -94 71 -94 109 -1 67 -10 71 -165 71 l-137 0 6 -27 c4 -16 11 -52 16 -82 9 -54 38 -121 52 -121 5 0 8 -6 8 -14 0 -8 15 -26 33 -40 17 -14 39 -32 47 -39 8 -8 23 -17 33 -20 9 -4 17 -11 17 -16 0 -15 -73 -32 -107 -25 -38 7 -103 -10 -138 -38 -31 -24 -85 -104 -85 -126 0 -10 8 -12 29 -7 18 4 55 -1 90 -11 37 -10 79 -15 106 -12 44 5 45 5 45 -22 0 -17 19 -53 50 -95 28 -37 50 -76 50 -86 0 -32 17 -30 49 6 65 75 76 147 36 233 -14 30 -25 72 -25 93 l0 39 58 -6 c31 -4 65 -11 74 -15 22 -12 105 -12 112 0 3 4 39 11 79 14 41 3 83 10 93 15 11 6 35 18 54 27 79 37 113 67 141 124 7 14 22 39 32 54 15 22 19 46 19 121 0 86 -4 104 -34 156 -4 8 -12 24 -17 35 -29 63 -200 180 -296 201 -16 4 -34 10 -40 14 -5 5 -27 11 -48 15 -20 4 -40 11 -43 16 -3 5 -16 9 -30 9 -13 0 -24 4 -24 9 0 5 -8 12 -17 15 -62 22 -92 59 -93 114 0 76 70 122 187 122 42 0 73 -4 73 -10 0 -5 6 -10 13 -10 7 0 28 -15 46 -34 27 -28 35 -45 39 -85 l5 -51 138 0 139 0 0 64 c0 36 -4 68 -10 71 -5 3 -10 17 -10 31 0 13 -4 24 -9 24 -5 0 -12 11 -15 25 -8 32 -92 117 -134 136 -18 7 -32 17 -32 21 0 5 -6 8 -12 8 -7 0 -26 7 -43 16 -21 11 -66 18 -150 21 -117 5 -122 6 -185 43 -117 68 -228 95 -328 79z"/>
<path d="M3690 1865 l0 -635 140 0 140 0 0 380 c0 247 4 380 10 380 6 0 10 -7 10 -15 0 -8 3 -15 8 -15 4 0 16 -17 27 -37 11 -21 22 -40 26 -43 3 -3 14 -21 25 -40 10 -19 24 -42 30 -50 7 -8 27 -42 45 -75 18 -33 48 -85 68 -115 20 -30 43 -69 51 -85 8 -17 25 -44 37 -61 13 -17 23 -36 23 -41 0 -6 6 -16 14 -22 8 -7 22 -26 31 -44 9 -18 27 -50 39 -72 l22 -40 142 -3 142 -3 0 636 0 635 -140 0 -140 0 0 -378 c0 -208 -3 -382 -7 -385 -6 -6 -22 16 -39 53 -4 8 -17 29 -28 45 -12 17 -30 47 -41 68 -11 20 -23 37 -27 37 -5 0 -8 4 -8 10 0 9 -40 80 -86 150 -12 19 -30 51 -41 70 -10 19 -27 49 -38 65 -38 57 -46 70 -51 88 -4 9 -10 17 -14 17 -4 0 -10 8 -14 18 -6 19 -19 40 -53 89 -13 17 -23 36 -23 42 0 7 -47 11 -140 11 l-140 0 0 -635z"/>
<path d="M5350 1865 l0 -635 140 0 140 0 0 186 0 186 52 60 53 60 23 -29 c13 -15 27 -37 33 -48 11 -25 32 -58 40 -65 6 -5 100 -147 109 -165 7 -14 43 -69 50 -75 7 -7 28 -42 37 -60 23 -49 29 -50 200 -50 112 0 163 3 163 11 0 6 -12 28 -27 48 -31 41 -50 69 -60 91 -4 8 -11 20 -15 25 -4 6 -19 24 -33 41 -14 18 -25 37 -25 42 0 6 -6 15 -13 19 -8 4 -17 15 -20 23 -4 8 -16 29 -27 45 -11 17 -23 38 -26 47 -3 9 -12 19 -20 22 -8 3 -14 12 -14 19 0 8 -9 22 -20 32 -11 10 -20 24 -20 32 0 7 -6 16 -14 19 -8 3 -17 13 -20 22 -3 9 -15 31 -26 47 -11 17 -23 38 -26 48 -4 9 -10 17 -14 17 -5 0 -15 13 -23 28 -12 25 -12 31 2 53 9 13 18 26 21 29 24 23 120 140 120 145 0 4 17 27 38 50 20 24 51 59 67 80 17 20 47 56 68 79 20 24 37 47 37 52 0 5 10 18 23 29 12 11 30 32 40 48 l17 27 -169 0 -170 0 -31 -30 c-16 -16 -30 -33 -30 -38 0 -4 -13 -21 -30 -37 -16 -16 -30 -33 -30 -38 0 -5 -25 -38 -55 -72 -30 -35 -55 -66 -55 -70 0 -3 -19 -30 -42 -58 -58 -70 -58 -70 -98 -122 l-35 -45 -3 255 -2 255 -140 0 -140 0 0 -635z"/>
<path d="M6890 1865 l0 -635 140 0 140 0 2 253 3 252 238 3 237 2 0 115 0 115 -237 2 -238 3 -3 142 -3 143 273 2 273 3 0 115 0 115 -412 3 -413 2 0 -635z"/>
<path d="M8297 2494 c-4 -4 -7 -290 -7 -636 l0 -628 145 0 145 0 -2 633 -3 632 -136 3 c-74 1 -138 -1 -142 -4z"/>
<path d="M10730 1865 l0 -635 140 0 140 0 0 260 0 260 225 0 225 0 0 -260 0 -260 145 0 145 0 -2 633 -3 632 -140 0 -140 0 -3 -252 -2 -253 -225 0 -225 0 0 255 0 255 -140 0 -140 0 0 -635z"/>
</g>
</svg>